<svg width="71" height="55" viewBox="0 0 71 55" fill="none" xmlns="http://www.w3.org/2000/svg">
<path d="M55.7815 10.6213H55.7451V10.9815H55.7815V10.6213Z" fill="#001E42"/>
<path d="M40.7553 29.451V28.6986L39.5247 26.8096L38.4925 27.466L39.5288 29.0588V29.451H29.1376V25.493C29.425 25.1768 29.5909 24.7766 29.5909 24.3444C29.5909 23.3959 28.8097 22.6235 27.8503 22.6235C27.8503 22.6235 27.8503 22.6235 27.8462 22.6235C27.3807 22.6235 26.9435 22.8036 26.6157 23.1278C26.2837 23.452 26.1016 23.8842 26.1016 24.3484C26.1016 24.7886 26.2756 25.1888 26.5549 25.497V27.1338C27.0447 27.9662 27.6398 28.7426 28.3482 29.443C29.3319 30.4155 30.4693 31.1838 31.704 31.7321H40.9658C42.1923 31.1878 43.3217 30.4235 44.3013 29.459H40.7553V29.451ZM28.2187 24.7126C28.1701 24.7606 28.1134 24.7966 28.0527 24.8246H27.6357C27.4455 24.7446 27.3119 24.5605 27.3119 24.3444C27.3119 24.2043 27.3686 24.0723 27.4657 23.9722C27.5669 23.8722 27.7005 23.8201 27.8381 23.8201C28.1296 23.8201 28.3684 24.0563 28.3684 24.3444C28.3765 24.4845 28.3199 24.6165 28.2187 24.7126Z" fill="#001E42"/>
<path d="M43.4916 39.8521C42.6496 40.1722 41.7874 40.4363 40.9089 40.6404V42.6695C40.6256 42.9776 40.4596 43.3698 40.4556 43.794V43.8501C40.4718 44.2983 40.662 44.7145 40.9939 45.0227C41.3097 45.3148 41.7226 45.4749 42.1557 45.4749C42.1679 45.4749 42.1841 45.4749 42.1962 45.4749H42.2083C42.6455 45.4829 43.0989 45.3108 43.4308 44.9946C43.7587 44.6785 43.9449 44.2543 43.949 43.802V43.778C43.9368 43.3538 43.7628 42.9696 43.4956 42.6775V39.8521H43.4916ZM42.5767 44.1342C42.4796 44.2263 42.3541 44.2823 42.2245 44.2743H42.1962H42.1679C42.0383 44.2783 41.9169 44.2343 41.8197 44.1462C41.7266 44.0582 41.67 43.9381 41.6659 43.802C41.6659 43.67 41.7185 43.5459 41.8157 43.4539C41.9047 43.3658 42.0221 43.3178 42.1557 43.3138H42.1638H42.2002C42.4917 43.3058 42.7103 43.5219 42.7265 43.798C42.7265 43.9261 42.6698 44.0462 42.5767 44.1342Z" fill="#001E42"/>
<path d="M35.2945 41.1449C34.4201 41.1009 33.5579 40.9968 32.7118 40.8447V42.6536C32.4204 42.9618 32.2504 43.362 32.2463 43.7942V43.8502C32.2625 44.2985 32.4528 44.7147 32.7847 45.0228C32.9588 45.1829 33.1652 45.303 33.3838 45.379V49.297C33.3838 49.4571 33.2543 49.5891 33.0802 49.5931H0V50.7937H33.1004C33.9343 50.7857 34.6022 50.1094 34.5982 49.293V45.375C35.2459 45.1429 35.7235 44.5306 35.7357 43.8062V43.7822C35.7235 43.362 35.5576 42.9898 35.2945 42.6977V41.1449ZM34.0153 44.2745H33.987H33.9586C33.9546 44.2745 33.9465 44.2745 33.9424 44.2745C33.6834 44.2745 33.4648 44.0703 33.4567 43.7982C33.4567 43.6661 33.5093 43.5421 33.6064 43.45C33.6955 43.362 33.8129 43.314 33.9465 43.31H33.9546H33.991C34.2906 43.302 34.501 43.5181 34.5172 43.7942C34.5091 44.0663 34.2906 44.2905 34.0153 44.2745Z" fill="#001E42"/>
<path d="M1.28026 43.566C5.8302 43.57 10.3761 43.57 14.926 43.562C15.9178 43.562 16.2295 43.2578 16.2295 42.2853C16.2295 39.7481 16.2295 37.2108 16.2295 34.6735H19.9213V36.5825C19.9213 37.623 20.7754 38.4674 21.8279 38.4674H24.5157V42.6655C24.2324 42.9737 24.0664 43.3659 24.0624 43.7901V43.8461C24.0786 44.2943 24.2688 44.7106 24.6007 45.0187C24.9165 45.3109 25.3294 45.4709 25.7625 45.4709C25.7747 45.4709 25.7909 45.4709 25.803 45.4709H25.8151C25.8232 45.4709 25.8313 45.4709 25.8394 45.4709C26.2888 45.4709 26.7138 45.3028 27.0336 44.9907C27.3615 44.6745 27.5477 44.2503 27.5517 43.7981V43.7741C27.5396 43.3499 27.3655 42.9657 27.0984 42.6735V38.9356C25.6735 38.1953 24.3376 37.2788 23.1151 36.2023H22.2205V35.3619C21.3624 34.5054 20.5973 33.585 19.9213 32.6125V33.4649H16.2335C16.2335 26.9736 16.2295 20.4784 16.2214 13.9871C16.2214 13.6669 16.104 13.3068 15.9299 13.0306C15.5656 12.4463 15.092 11.9301 14.7358 11.3458C14.4565 10.8895 14.1124 10.7055 13.5821 10.7175C12.7401 10.7335 3.56333 10.7415 2.96422 10.7095C2.2032 10.6734 1.68101 10.8815 1.34503 11.5899C1.13453 12.0261 0.778307 12.3943 0.535427 12.8185C0.324932 13.1827 0.029428 13.5829 0.029428 13.9671C-0.00295592 23.4198 0.00109207 32.8766 0.00514007 42.3334C0.00514007 43.2498 0.337076 43.566 1.28026 43.566ZM25.4265 43.4539C25.5156 43.3659 25.633 43.3178 25.7666 43.3138H25.7747H25.8111C26.0945 43.3058 26.3211 43.522 26.3373 43.7981C26.3333 43.9262 26.2807 44.0462 26.1835 44.1343C26.0864 44.2263 25.969 44.2823 25.8313 44.2743H25.803H25.7747C25.6492 44.2783 25.5196 44.2343 25.4265 44.1463C25.3334 44.0582 25.2768 43.9382 25.2727 43.8021C25.2768 43.67 25.3294 43.546 25.4265 43.4539ZM8.04446 42.1773C6.83006 42.1413 5.89902 41.1488 5.95569 39.9482C6.00832 38.7956 7.00007 37.9111 8.20233 37.9552C9.39649 37.9952 10.3154 38.9396 10.2911 40.1042C10.2668 41.2888 9.26695 42.2133 8.04446 42.1773ZM13.0721 36.2903C11.4124 36.2983 9.74866 36.2943 8.08898 36.2943C6.45359 36.2943 4.8182 36.2983 3.17877 36.2943C2.33678 36.2903 2.23963 36.1783 2.23558 35.2738C2.23154 34.3173 2.30035 34.2213 3.13019 34.2213C6.45359 34.2133 9.77295 34.2133 13.0964 34.2213C13.9262 34.2213 14.0071 34.3293 14.0071 35.2658C14.0071 36.1743 13.914 36.2863 13.0721 36.2903ZM2.23963 16.2322C2.24368 15.3358 2.4987 15.0636 3.37712 15.0596C6.53051 15.0476 9.68794 15.0476 12.8413 15.0556C13.7197 15.0596 13.995 15.3398 14.0031 16.2162C14.0152 17.761 14.0152 19.3098 14.0031 20.8586C13.995 21.771 13.7278 22.0231 12.7887 22.0271C11.2221 22.0311 9.65961 22.0271 8.09303 22.0271V22.0231C6.52646 22.0231 4.96393 22.0271 3.39736 22.0191C2.51894 22.0151 2.24773 21.747 2.23963 20.8706C2.23154 19.3258 2.23154 17.777 2.23963 16.2322ZM3.05328 25.1047C6.42526 25.1287 9.80128 25.1287 13.1733 25.1047C13.9869 25.1007 14.0152 25.5609 14.0152 26.1532C14.0152 26.7375 13.9383 27.1497 13.1814 27.1377C11.4933 27.1057 9.80938 27.1257 8.12137 27.1257C6.43335 27.1257 4.74534 27.1017 3.06138 27.1377C2.3044 27.1537 2.21939 26.7575 2.22749 26.1612C2.23963 25.5849 2.22344 25.1007 3.05328 25.1047ZM3.13019 29.635C6.45359 29.659 9.777 29.639 13.0964 29.643C13.9181 29.643 14.0071 29.763 14.0071 30.6875C14.0071 31.596 13.9221 31.704 13.0721 31.708C11.4124 31.716 9.74866 31.712 8.08898 31.712C6.42931 31.712 4.76558 31.688 3.1059 31.724C2.25178 31.744 2.24368 31.2478 2.22344 30.6275C2.2032 29.9631 2.38131 29.631 3.13019 29.635Z" fill="#001E42"/>
<path d="M42.4027 14.4673C40.4596 14.4673 38.5166 14.4633 36.5736 14.4713C35.9178 14.4753 35.7437 14.6514 35.7356 15.2957C35.7275 15.9401 35.7316 16.5884 35.7356 17.2327C35.7356 18.1251 35.8571 18.2452 36.776 18.2452C36.9824 18.2452 37.1889 18.2452 37.3913 18.2452C38.0956 18.2452 38.8 18.2492 39.5043 18.2492H39.5286V21.7029C39.2979 21.787 39.0874 21.9151 38.9093 22.0911C38.5773 22.4153 38.3952 22.8475 38.3952 23.3118C38.3952 24.1602 39.0266 24.8645 39.8443 25.0046L40.8766 26.5854L41.9048 25.9291L41.1235 24.7325C41.2085 24.6724 41.2935 24.6084 41.3704 24.5324C41.7024 24.2082 41.8845 23.776 41.8845 23.3118C41.8845 22.5754 41.4109 21.9511 40.7551 21.707V18.2492C41.2045 18.2492 41.6497 18.2492 42.0991 18.2412C42.18 18.2412 42.2529 18.2452 42.3177 18.2532H46.6085C46.7826 18.2532 46.9526 18.2532 47.1267 18.2532C46.7016 16.8805 46.0094 15.5959 45.0743 14.4713C44.1838 14.4713 43.2932 14.4673 42.4027 14.4673ZM37.9256 17.1447C37.5127 17.1286 37.1646 16.7645 37.1646 16.3523C37.1646 15.94 37.5208 15.5839 37.9377 15.5719C38.3911 15.5599 38.7473 15.912 38.7433 16.3643C38.7392 16.8125 38.3749 17.1647 37.9256 17.1447ZM40.5163 23.6839C40.4151 23.784 40.2815 23.836 40.1439 23.836C39.8524 23.836 39.6136 23.5999 39.6136 23.3158C39.6136 23.1757 39.6703 23.0436 39.7674 22.9436C39.8686 22.8435 40.0022 22.7915 40.1398 22.7915C40.4313 22.7915 40.6701 23.0276 40.6701 23.3158C40.6742 23.4558 40.6175 23.5879 40.5163 23.6839ZM40.7632 17.1407C40.3018 17.1487 39.9536 16.7965 39.9658 16.3322C39.9779 15.896 40.318 15.5719 40.7592 15.5759C41.2004 15.5799 41.5364 15.92 41.5364 16.3563C41.5364 16.7925 41.1964 17.1367 40.7632 17.1407ZM43.5685 17.1447C43.1313 17.1567 42.7346 16.7845 42.7346 16.3603C42.7306 15.9521 43.0908 15.5919 43.5118 15.5759C43.9652 15.5599 44.3376 15.916 44.3376 16.3603C44.3336 16.7805 43.9895 17.1326 43.5685 17.1447Z" fill="#001E42"/>
<path d="M36.8286 11.8178C36.8286 12.7182 37.0755 12.9664 37.9985 12.9664C39.8525 12.9664 41.7064 12.9664 43.5645 12.9664C42.7549 12.298 41.8603 11.7497 40.913 11.3335C40.5285 11.3335 40.148 11.3335 39.7634 11.3335C39.0348 11.3335 38.6178 11.1014 38.4519 10.5772C37.9216 10.4771 37.3791 10.4171 36.8327 10.3931C36.8286 10.8693 36.8286 11.3415 36.8286 11.8178Z" fill="#001E42"/>
<path d="M38.6381 2.04103C38.8486 1.7929 39.1805 1.66884 39.6703 1.66484C41.5769 1.64883 43.4795 1.66084 45.3861 1.66084V1.65683C47.2158 1.65683 49.0455 1.65283 50.8792 1.65683C52.041 1.66084 52.4417 2.04503 52.4417 3.1736C52.4458 5.39071 52.4458 7.60382 52.4417 9.82094C52.4417 9.89698 52.4336 9.96501 52.4296 10.037C52.972 10.7814 53.4659 11.5618 53.895 12.3742C53.9354 12.2101 53.9516 12.006 53.9516 11.7499C53.9516 8.24014 53.9516 4.73438 53.9516 1.22462C53.9516 0.216109 53.733 0 52.6927 0C50.2639 0 47.8351 0 45.4063 0C42.9573 0 40.5123 0 38.0632 0C37.0513 0 36.8286 0.212107 36.8286 1.1846C36.8286 1.42872 36.8286 1.67284 36.8286 1.92097C37.4358 1.93297 38.039 1.97299 38.6381 2.04103Z" fill="#001E42"/>
<path d="M48.9481 9.06438C41.9896 2.18492 30.6714 2.18492 23.7129 9.06438C16.7544 15.9438 16.7585 27.1335 23.717 34.0129C29.8942 40.12 39.5042 40.8003 46.4546 36.062L62.9218 54.023C64.3953 55.4797 66.9941 55.2716 68.7266 53.5628C70.4592 51.8499 70.6697 49.2806 69.1922 47.8239L50.9195 31.6918C55.8257 24.8123 55.1699 15.2155 48.9481 9.06438ZM45.7502 30.8473C40.5566 35.9819 32.1085 35.9819 26.9149 30.8473C21.7213 25.7127 21.7213 17.3605 26.9149 12.226C32.1085 7.09139 40.5566 7.09139 45.7502 12.226C50.9438 17.3646 50.9438 25.7167 45.7502 30.8473Z" fill="#001E42"/>
</svg>
