<svg width="60" height="55" viewBox="0 0 60 55" fill="none" xmlns="http://www.w3.org/2000/svg">
<path d="M29.675 54.144C21.1069 54.144 12.5398 54.1461 3.97165 54.1419C2.0105 54.1409 0.392782 52.8793 0.0640042 51.1179C-0.35901 48.8472 1.36446 46.7846 3.76642 46.7184C4.86479 46.6884 5.96526 46.7112 7.06468 46.7112C23.1528 46.7112 39.242 46.7122 55.3301 46.7101C56.8547 46.7101 58.1059 47.2504 58.908 48.5616C60.3801 50.9699 58.6483 54.0012 55.7448 54.1295C55.2223 54.1523 54.6977 54.1368 54.1742 54.1368C46.0081 54.1368 37.841 54.1368 29.675 54.1368C29.675 54.1399 29.675 54.1419 29.675 54.144ZM45.7422 48.2263C44.4909 48.2221 43.4753 49.226 43.4816 50.4607C43.4878 51.6674 44.4972 52.6641 45.7202 52.6713C46.9557 52.6785 47.9976 51.6478 47.986 50.4296C47.9756 49.2209 46.9662 48.2304 45.7422 48.2263ZM53.4967 50.4576C53.5041 49.2343 52.5251 48.2428 51.2948 48.2273C50.0425 48.2118 49.0122 49.2074 49.009 50.4359C49.0059 51.6695 50.0257 52.6775 51.2707 52.6723C52.4957 52.6661 53.4894 51.6767 53.4967 50.4576Z" fill="#001E42"/>
<path d="M21.8553 38.536C20.5245 35.9973 20.8711 31.6516 24.0877 28.9287C27.2215 26.2773 31.9804 26.271 35.0954 28.9381C38.2942 31.6765 39.0062 36.2819 36.7634 39.7727C34.373 43.4922 29.9491 44.3181 27.0006 43.2263C27.1084 43.1021 27.1964 42.9872 27.299 42.8858C28.5921 41.6045 29.8884 40.3264 31.1805 39.0441C31.9438 38.2866 31.9448 37.6221 31.1784 36.8604C30.2559 35.9435 29.3314 35.0296 28.3995 34.123C27.7273 33.469 27.0163 33.47 26.3399 34.1334C24.9651 35.4798 23.5987 36.8356 22.2291 38.1862C22.1202 38.2948 22.004 38.3973 21.8553 38.536Z" fill="#001E42"/>
<path d="M47.2122 8.70045C44.0668 11.799 40.9947 14.8251 37.8451 17.9268C38.866 18.2735 39.7989 18.5871 40.7287 18.9079C41.6795 19.236 42.3297 19.8683 42.6333 20.8225C42.847 21.4932 42.7799 22.1338 42.2595 22.6492C41.7339 23.1698 41.0533 23.2391 40.4052 22.9959C38.3676 22.2311 36.3321 21.457 34.3333 20.6011C33.3679 20.1881 32.8098 19.4088 32.792 18.2818C32.7585 16.1095 32.68 13.9372 32.5889 11.7659C32.5616 11.1118 32.7616 10.5964 33.2244 10.1411C35.3761 8.02464 37.5163 5.8958 39.6681 3.77937C40.4356 3.02491 41.4711 3.10977 42.4019 4.01016C43.4993 5.07096 44.5736 6.1566 45.6625 7.22568C46.1473 7.70174 46.6436 8.16022 47.2122 8.70045Z" fill="#001E42"/>
<path d="M26.9956 7.05028C27.1327 7.96619 27.2552 8.78896 27.3861 9.66864C27.2311 9.67589 27.0134 9.69348 26.7956 9.69348C21.2995 9.69452 15.8025 9.69452 10.3064 9.69452C8.30024 9.69452 7.36102 10.626 7.36102 12.6089C7.36102 23.4746 7.36207 34.3392 7.36312 45.2049C7.36312 45.4274 7.36312 45.6489 7.36312 45.9139C6.45112 45.9139 5.57473 45.9139 4.63552 45.9139C4.63552 45.6934 4.63552 45.4916 4.63552 45.2898C4.63552 34.3382 4.63447 23.3866 4.63656 12.435C4.63761 9.24639 6.87414 7.01923 10.0897 7.01819C15.5857 7.01509 21.0828 7.0244 26.5788 7.03061C26.7495 7.02958 26.9202 7.04614 26.9956 7.05028Z" fill="#001E42"/>
<path d="M44.1163 19.5719C43.5519 18.4624 42.5865 17.6355 41.1709 17.1139C42.0201 16.3046 42.8064 15.576 43.5687 14.8246C46.2848 12.1473 48.9862 9.45338 51.7086 6.78223C53.1808 5.33851 54.9357 4.87693 56.8926 5.60966C58.8255 6.33307 59.8454 7.8037 59.9878 9.82906C60.0642 10.9085 59.792 11.9486 59.0842 12.7838C58.3041 13.7038 57.4214 14.538 56.4759 15.5201C55.9702 14.9695 55.544 14.4407 55.0519 13.9822C53.8593 12.8707 52.1567 12.5871 50.8437 13.2836C50.0438 13.708 49.4459 14.3527 49.0093 15.1465C48.9108 15.3256 48.7454 15.5025 48.5663 15.5988C47.6983 16.0655 47.0282 16.7155 46.5633 17.5776C46.4921 17.71 46.4146 17.8559 46.2994 17.9439C45.5916 18.4841 44.8744 19.0089 44.1163 19.5719Z" fill="#001E42"/>
<path d="M45.7454 22.0495C45.36 20.5478 46.6333 19.2655 48.2185 19.6505C48.0332 18.923 48.1201 18.302 48.6719 17.7421C49.2321 17.175 49.8593 17.0849 50.6215 17.2484C50.6215 17.1191 50.6393 17.0352 50.6184 16.9618C50.3608 16.0221 50.9231 15.398 51.6215 14.9364C52.1879 14.5618 53.0497 14.6404 53.6622 15.2065C54.8349 16.288 55.9741 17.4078 57.0767 18.5597C57.6578 19.1672 57.7667 20.0831 57.3824 20.6213C56.7961 21.444 56.2547 21.8425 55.281 21.6158C55.2192 21.6014 55.1511 21.6138 55.0852 21.6138C55.1511 23.4642 54.637 23.9765 52.6507 24.0645C52.7136 25.8715 51.8969 26.6746 50.2006 26.4314C50.2006 26.5307 50.1828 26.628 50.2037 26.717C50.4194 27.6464 49.9242 28.257 49.2132 28.7041C48.5054 29.1491 47.7369 28.9876 47.1725 28.4733C45.9663 27.3783 44.8061 26.2285 43.6942 25.0394C43.1706 24.4795 42.9968 23.7136 43.446 23.0223C43.9256 22.2844 44.5433 21.77 45.5464 22.0474C45.5935 22.0609 45.649 22.0495 45.7454 22.0495Z" fill="#001E42"/>
<path d="M54.7711 26.5215C54.7711 32.8728 54.7711 39.366 54.7711 45.9077C53.8894 45.9077 53.0162 45.9077 52.0979 45.9077C52.0885 45.709 52.0728 45.5248 52.0728 45.3396C52.0717 40.0811 52.0759 34.8226 52.0654 29.5642C52.0644 28.9867 52.3021 28.6576 52.7848 28.314C53.5209 27.7913 54.1376 27.1073 54.7711 26.5215Z" fill="#001E42"/>
<path d="M43.8563 27.8567C42.3287 29.3614 40.8272 30.8403 39.2922 32.3524C38.1791 29.1069 35.9615 26.8869 32.5815 25.7113C32.9438 25.3439 33.2632 25.0158 33.5867 24.6929C34.0527 24.2282 34.5354 23.778 34.9846 23.2978C35.2191 23.0474 35.4254 22.9967 35.7552 23.1312C36.9614 23.6259 38.1708 24.1196 39.4032 24.547C39.9832 24.7478 40.6198 24.7881 41.2271 24.9175C41.3737 24.9485 41.5926 25.0148 41.6324 25.1193C42.0103 26.1128 42.8009 26.7762 43.5213 27.4986C43.6417 27.6207 43.7548 27.748 43.8563 27.8567Z" fill="#001E42"/>
<path d="M29.3462 7.7656C29.5263 7.42718 29.6373 7.02252 29.8969 6.76172C32.011 4.63391 34.1543 2.53508 36.2851 0.423829C36.6338 0.079198 37.0515 -0.0346439 37.5269 0.00882299C38.5802 0.105071 39.5509 1.05824 39.5509 2.10559C39.5509 2.48126 39.3949 2.95423 39.1373 3.21606C37.0201 5.36457 34.8632 7.47375 32.7177 9.59432C32.3418 9.96585 31.8864 10.0735 31.3712 9.97724C30.298 9.77646 29.4624 8.83778 29.3462 7.7656Z" fill="#001E42"/>
<path d="M21.2798 21.2227L12.4782 12.313L12.4688 24.9277L16.0958 23.4022L18.2967 27.9559L20.3668 26.9789L18.2088 22.5143L21.2798 21.2227Z" fill="#001E42"/>
</svg>
