<svg width="67" height="58" viewBox="0 0 67 58" fill="none" xmlns="http://www.w3.org/2000/svg">
<g clip-path="url(#clip0_1_28638)">
<path d="M31.796 4.34315C31.796 3.91801 31.6406 3.44285 31.4158 3.07884C30.9412 2.30913 30.3251 1.62557 29.8561 0.850312C29.4897 0.244553 29.0402 0.00280581 28.3491 0.0166993C27.2529 0.0361503 15.2638 0.0444864 14.4812 0.00558451C13.4877 -0.0444322 12.8077 0.233439 12.3637 1.16708C12.089 1.74506 11.6255 2.23133 11.3063 2.78985C11.0316 3.27057 10.6458 3.79852 10.6431 4.30703C10.607 16.8168 10.6097 29.3293 10.6181 41.839C10.6181 43.0506 11.0538 43.4674 12.286 43.4674C18.2278 43.4757 24.1668 43.4729 30.1086 43.4646C31.4019 43.4618 31.8126 43.0645 31.8126 41.7724C31.8182 29.2987 31.8182 16.8196 31.796 4.34315ZM13.5404 7.31359C13.5487 6.12708 13.879 5.76863 15.0279 5.76585C19.1492 5.75195 23.2676 5.74918 27.3889 5.76307C28.5351 5.76585 28.8958 6.1382 28.9042 7.29692C28.9208 9.34205 28.918 11.39 28.9042 13.4351C28.8958 14.6438 28.5434 14.9773 27.3167 14.98C25.2741 14.9884 23.2288 14.9828 21.1862 14.9828C21.1862 14.98 21.1862 14.98 21.1862 14.9773C19.1436 14.9773 17.0983 14.9856 15.0557 14.9745C13.9123 14.9689 13.5515 14.6133 13.5432 13.4545C13.5265 11.4066 13.5293 9.3615 13.5404 7.31359ZM21.1168 41.6334C19.5322 41.5862 18.3138 40.2719 18.3888 38.6824C18.4581 37.1569 19.7542 35.9899 21.3194 36.0454C22.8819 36.0982 24.0808 37.3487 24.0503 38.8881C24.0197 40.458 22.7154 41.6807 21.1168 41.6334ZM27.6886 33.8475C25.5184 33.8586 23.3481 33.8503 21.1807 33.8503C19.0437 33.8503 16.9068 33.8586 14.7698 33.8475C13.6681 33.8419 13.5432 33.6919 13.5376 32.4998C13.5321 31.2355 13.6209 31.1077 14.706 31.1077C19.0465 31.0993 23.3842 31.0993 27.7247 31.1077C28.8098 31.1105 28.9125 31.2522 28.9125 32.4887C28.9069 33.6919 28.7876 33.8419 27.6886 33.8475ZM27.6886 27.7871C25.5184 27.7982 23.3481 27.7899 21.1779 27.7899C19.0076 27.7899 16.8374 27.7565 14.6699 27.8038C13.5543 27.8288 13.5432 27.1758 13.5182 26.3533C13.4932 25.4752 13.7236 25.0362 14.7032 25.0418C19.0437 25.0723 23.3814 25.0445 27.7219 25.0556C28.7959 25.0584 28.9097 25.214 28.9097 26.4367C28.9069 27.6398 28.7959 27.7816 27.6886 27.7871ZM27.8301 21.7434C25.6266 21.7017 23.4231 21.7295 21.2223 21.7295C19.0187 21.7295 16.8152 21.699 14.6144 21.7434C13.6264 21.7629 13.5127 21.2377 13.5265 20.4541C13.5404 19.6872 13.5182 19.0425 14.6061 19.0509C19.0132 19.0842 23.4175 19.0814 27.8246 19.0509C28.8875 19.0425 28.9236 19.6538 28.9236 20.4402C28.9208 21.2182 28.8209 21.7629 27.8301 21.7434Z" fill="#001E42"/>
<path d="M64.9491 43.2367L56.1155 39.5215L50.2098 31.4216H55.4467C56.1987 31.4216 56.8704 30.8714 56.9425 30.1212C57.0258 29.2598 56.3514 28.5373 55.5077 28.5373H37.9543C37.674 28.5373 37.4436 28.3095 37.4436 28.026V26.0615C37.4436 25.3084 36.8941 24.636 36.1448 24.5638C35.2845 24.4804 34.5629 25.1556 34.5629 26.0003V28.5373V31.4244V45.079C34.5629 45.5652 34.1688 45.9598 33.6832 45.9598H17.5812C16.5738 45.3207 15.3832 44.9511 14.1038 44.9511C12.8244 44.9511 11.6338 45.3235 10.6264 45.9598H7.86782C7.45154 45.9598 7.11296 45.6208 7.11296 45.204V25.2668C7.11296 24.875 6.79658 24.5554 6.40249 24.5554H6.05559C2.71142 24.5554 0 27.273 0 30.6213V51.3061C0 51.7645 0.369108 52.1341 0.827024 52.1341H7.0852V52.1619H7.62083C7.96496 55.438 10.7402 58 14.1038 58C17.4674 58 20.2426 55.438 20.5868 52.1619H44.0626C44.4067 55.438 47.182 58 50.5456 58C53.9092 58 56.6844 55.438 57.0285 52.1619H65.79C66.4588 52.1619 67 51.62 67 50.9504V45.957V45.4569C67 43.8369 64.9491 43.2367 64.9491 43.2367ZM16.4433 54.7461C16.4378 54.7489 16.435 54.7544 16.4295 54.7572C16.3518 54.8128 16.2713 54.8656 16.188 54.9156C16.163 54.9295 16.1408 54.9462 16.1159 54.9601C16.0437 55.0017 15.9688 55.0406 15.8938 55.0795C15.8578 55.099 15.8189 55.1157 15.7828 55.1351C15.7134 55.1657 15.6441 55.1962 15.5747 55.224C15.5275 55.2435 15.4776 55.2602 15.4276 55.2768C15.3638 55.2991 15.2972 55.3213 15.2333 55.3407C15.175 55.3574 15.114 55.3713 15.0529 55.388C14.9947 55.4019 14.9336 55.4185 14.8725 55.4297C14.7976 55.4436 14.7227 55.4547 14.6478 55.463C14.5978 55.4686 14.5478 55.4797 14.4979 55.4825C14.3786 55.4936 14.2564 55.4991 14.1343 55.5019C14.126 55.5019 14.1177 55.5019 14.1121 55.5019C14.1038 55.5019 14.0983 55.5019 14.0899 55.5019C13.9678 55.5019 13.8457 55.4963 13.7236 55.4825C13.6736 55.4769 13.6237 55.4686 13.5737 55.463C13.4988 55.4519 13.4211 55.4436 13.3462 55.4297C13.2851 55.4185 13.2268 55.4019 13.1685 55.388C13.1075 55.3741 13.0464 55.3574 12.9854 55.3407C12.9188 55.3213 12.8549 55.2991 12.7911 55.2768C12.7412 55.2602 12.6912 55.2407 12.644 55.2213C12.5746 55.1935 12.5053 55.1629 12.4359 55.1323C12.397 55.1157 12.3609 55.0962 12.3221 55.0768C12.2472 55.0406 12.1722 54.999 12.1001 54.9573C12.0751 54.9434 12.0501 54.9267 12.0251 54.9128C11.9447 54.8628 11.8642 54.8128 11.7865 54.7572C11.7809 54.7544 11.7754 54.7489 11.7698 54.7461C10.7208 53.9931 10.0492 52.751 10.0908 51.3505C10.1546 49.2748 11.842 47.552 13.9151 47.452C16.2241 47.3408 18.1335 49.1859 18.1335 51.4728C18.1251 52.8232 17.4591 54.0153 16.4433 54.7461ZM39.9053 39.8939C39.5473 39.8939 39.2559 39.6021 39.2559 39.2437V33.3C39.2559 32.9416 39.5473 32.6498 39.9053 32.6498H47.2541C47.465 32.6498 47.6621 32.7526 47.7842 32.9249L51.972 38.8686C52.2745 39.2993 51.9693 39.8939 51.442 39.8939H39.9053ZM52.8823 54.7461C52.8768 54.7489 52.874 54.7517 52.8684 54.7544C52.7907 54.81 52.7075 54.8628 52.627 54.9128C52.602 54.9267 52.5798 54.9434 52.5548 54.9573C52.4827 54.999 52.4078 55.0379 52.3328 55.0768C52.2967 55.0962 52.2579 55.1129 52.2218 55.1296C52.1524 55.1601 52.0831 55.1907 52.0137 55.2185C51.9665 55.2379 51.9165 55.2546 51.8666 55.2713C51.8028 55.2935 51.7361 55.3157 51.6695 55.3352C51.6113 55.3519 51.5502 55.3657 51.4892 55.3824C51.4281 55.3963 51.3698 55.413 51.3088 55.4241C51.2338 55.438 51.1589 55.4491 51.084 55.4574C51.034 55.463 50.9841 55.4741 50.9341 55.4769C50.8148 55.488 50.6927 55.4936 50.5705 55.4963C50.5622 55.4963 50.5539 55.4963 50.5456 55.4963C50.5372 55.4963 50.5317 55.4963 50.5234 55.4963C50.4013 55.4963 50.2791 55.4908 50.157 55.4769C50.1071 55.4713 50.0571 55.463 50.0072 55.4574C49.9322 55.4463 49.8545 55.438 49.7796 55.4241C49.7185 55.413 49.6603 55.3963 49.602 55.3824C49.5409 55.3685 49.4799 55.3519 49.4188 55.3352C49.3522 55.3157 49.2884 55.2935 49.2245 55.2713C49.1746 55.2546 49.1246 55.2351 49.0747 55.2157C49.0053 55.1879 48.9359 55.1573 48.8665 55.1268C48.8277 55.1101 48.7888 55.0907 48.7528 55.0712C48.6778 55.0351 48.6057 54.9962 48.5335 54.9545C48.5085 54.9406 48.4836 54.9239 48.4586 54.91C48.3781 54.86 48.2976 54.81 48.2199 54.7544C48.2144 54.7489 48.2088 54.7461 48.2005 54.7405C47.1542 53.9875 46.4798 52.7454 46.5215 51.345C46.5853 49.2693 48.2726 47.5465 50.3458 47.4464C52.6548 47.3353 54.5641 49.1803 54.5641 51.4672C54.5669 52.8232 53.9008 54.0153 52.8823 54.7461ZM64.7049 48.3439C63.9805 48.3439 63.3922 47.5548 63.3922 46.5795C63.3922 45.6069 63.9805 44.815 64.7049 44.815C65.4292 44.815 66.0176 45.6041 66.0176 46.5795C66.0176 47.552 65.4292 48.3439 64.7049 48.3439Z" fill="#001E42"/>
</g>
<defs>
<clipPath id="clip0_1_28638">
<rect width="67" height="58" fill="white"/>
</clipPath>
</defs>
</svg>
