<svg width="63" height="62" viewBox="0 0 63 62" fill="none" xmlns="http://www.w3.org/2000/svg">
<path d="M23.5914 57.0224C18.5894 57.015 13.5874 57.0168 8.58535 57.0168C6.08342 57.0168 3.58334 57.0131 1.08141 57.0224C0.238187 57.0261 0.0125885 57.2572 0.00519185 58.0949C-0.00405401 58.9363 0.00149351 59.7777 0.00334268 60.619C0.00519185 61.7785 0.160522 61.9338 1.32735 61.9393H7.1393C7.49249 61.9375 7.84383 61.9338 8.19702 61.9282C8.28209 61.9264 8.35975 61.9301 8.43002 61.9393H18.6985C20.3775 61.9393 22.0584 61.9393 23.7375 61.9375C24.6047 61.9356 24.8118 61.7341 24.8229 60.8835C24.8359 60.0181 24.8303 59.1526 24.8285 58.2872C24.8266 57.1777 24.6898 57.0242 23.5914 57.0224ZM2.81963 60.5044C2.28892 60.484 1.83957 60.0107 1.83772 59.4707C1.83587 58.9344 2.29447 58.4684 2.83442 58.4555C3.42061 58.4426 3.87736 58.8975 3.87181 59.4855C3.86626 60.0717 3.39657 60.5266 2.81963 60.5044ZM6.47544 60.5007C5.88001 60.5118 5.43251 60.0532 5.44915 59.4448C5.46395 58.8753 5.90405 58.4518 6.47359 58.4592C7.03944 58.4666 7.474 58.9085 7.47215 59.4762C7.46845 60.0421 7.03389 60.4896 6.47544 60.5007ZM10.0869 60.5025C9.52288 60.5173 9.01621 60.0347 9.01066 59.4799C9.00696 58.9492 9.46925 58.4777 10.0129 58.4574C10.5935 58.4352 11.0762 58.8993 11.0743 59.4781C11.0725 60.0273 10.6287 60.4877 10.0869 60.5025ZM23.0496 59.2285C23.0348 59.3708 23.0496 59.5169 23.0477 59.6593C23.0403 60.6024 22.9442 60.7059 22.027 60.7115C21.1153 60.717 20.2037 60.7133 19.2921 60.7133C18.3083 60.7115 17.3245 60.6985 16.3408 60.717C15.762 60.7281 15.4939 60.4711 15.5013 59.9034C15.5031 59.8313 15.4994 59.7592 15.4994 59.687C15.4772 58.2706 15.5327 58.2114 16.9214 58.2133C18.6485 58.217 20.3757 58.2391 22.1028 58.2225C22.8203 58.2188 23.1198 58.5276 23.0496 59.2285Z" fill="#001E42"/>
<path d="M62.9974 58.2872C62.9956 57.1777 62.8587 57.0242 61.7603 57.0224C56.7583 57.015 51.7563 57.0168 46.7543 57.0168C44.2524 57.0168 41.7523 57.0131 39.2504 57.0224C38.4071 57.0261 38.1815 57.2572 38.1741 58.0949C38.1649 58.9363 38.1704 59.7777 38.1723 60.619C38.1741 61.7785 38.3295 61.9338 39.4963 61.9393H45.3082C45.6614 61.9375 46.0128 61.9338 46.366 61.9282C46.451 61.9264 46.5287 61.9301 46.599 61.9393H56.8674C58.5465 61.9393 60.2274 61.9393 61.9064 61.9375C62.7737 61.9356 62.9808 61.7341 62.9919 60.8835C63.0048 60.0199 62.9993 59.1526 62.9974 58.2872ZM40.9867 60.5044C40.456 60.484 40.0067 60.0107 40.0048 59.4707C40.003 58.9344 40.4616 58.4684 41.0015 58.4555C41.5877 58.4426 42.0445 58.8975 42.0389 59.4855C42.0352 60.0717 41.5655 60.5266 40.9867 60.5044ZM44.6425 60.5007C44.0471 60.5118 43.5996 60.0532 43.6162 59.4448C43.631 58.8753 44.0711 58.4518 44.6407 58.4592C45.2065 58.4666 45.6411 58.9085 45.6392 59.4762C45.6355 60.0421 45.201 60.4896 44.6425 60.5007ZM48.254 60.5025C47.69 60.5173 47.1833 60.0347 47.1778 59.4799C47.1741 58.9492 47.6363 58.4777 48.18 58.4574C48.7606 58.4352 49.2433 58.8993 49.2414 59.4781C49.2396 60.0273 48.7958 60.4877 48.254 60.5025ZM61.2167 59.2285C61.2019 59.3708 61.2167 59.5169 61.2148 59.6593C61.2074 60.6024 61.1113 60.7059 60.1941 60.7115C59.2824 60.717 58.3708 60.7133 57.4592 60.7133C56.4754 60.7115 55.4916 60.6985 54.5079 60.717C53.9291 60.7281 53.661 60.4711 53.6684 59.9034C53.6702 59.8313 53.6665 59.7592 53.6665 59.687C53.6443 58.2706 53.6998 58.2114 55.0885 58.2133C56.8156 58.217 58.5428 58.2391 60.2699 58.2225C60.9892 58.2188 61.2869 58.5276 61.2167 59.2285Z" fill="#001E42"/>
<path d="M46.4491 33.5156C46.7598 33.695 47.0631 33.9816 47.3941 34.0186C48.0894 34.0962 49.3764 34.0611 50.0791 34.0371C50.1623 34.0334 50.2178 34.0389 50.251 34.05H50.1142V38.1663C47.1333 38.1663 44.1506 38.1663 41.1698 38.1663C39.8679 38.1663 39.5776 38.4455 39.5776 39.7103C39.5758 44.3277 39.5758 48.9451 39.5776 53.5625C39.5776 54.7348 39.8975 55.0566 41.0865 55.0566C47.4126 55.0603 53.7386 55.0584 60.0646 55.0529C61.3387 55.0511 61.6234 54.7515 61.6253 53.4663C61.6271 48.897 61.6253 44.3277 61.6271 39.7584C61.6271 38.4455 61.3479 38.1663 60.0054 38.1644C57.4184 38.1626 54.8333 38.1644 52.2463 38.1644V34.0482V34.0426C53.2948 34.0426 54.2933 34.0426 55.2937 34.0426C56.1739 34.0408 56.4846 33.7356 56.492 32.8554C56.4975 32.1934 56.5068 31.5314 56.4883 30.8694C56.4717 30.2463 56.1647 29.8875 55.5471 29.882C52.7918 29.8616 50.0347 29.8561 47.2794 29.8968C46.9928 29.9005 46.7136 30.2574 46.427 30.446C46.2383 30.5699 46.0442 30.7807 45.85 30.7825C43.0744 30.8066 40.2988 30.8084 37.5213 30.7899C37.3105 30.7881 36.9943 30.6531 36.9093 30.4867C36.6504 29.9855 36.2528 29.8579 35.7498 29.8616C34.8733 29.8672 33.9968 29.8357 33.1222 29.8709C32.4694 29.8968 32.536 29.4936 32.5341 29.1127H32.5656V26.4986H46.3511V26.4912C46.4565 26.4949 46.5619 26.4986 46.6673 26.4986C51.0813 26.4986 54.6613 22.9205 54.6613 18.5047C54.6613 14.9986 52.4035 12.0215 49.2636 10.9434C49.6279 10.0299 49.8294 9.0332 49.8294 7.99027C49.8257 3.57815 46.2476 0 41.8318 0C39.193 0 36.8519 1.27963 35.3966 3.25269C34.3796 2.78485 33.2479 2.52042 32.0552 2.52042C30.5037 2.52042 29.0558 2.96422 27.8298 3.72978C26.7074 3.1288 25.4241 2.7867 24.0612 2.7867C19.7342 2.7867 16.2115 6.22616 16.0746 10.5218C11.7809 10.6586 8.33956 14.1813 8.33956 18.5084C8.33956 22.9223 11.9177 26.5023 16.3335 26.5023H30.4298V28.9777C30.4076 29.024 30.3946 29.0702 30.3946 29.1164C30.4076 29.5158 30.4335 29.9023 29.8306 29.8727C29.1908 29.8431 28.5492 29.8653 27.9075 29.869C27.4249 29.8709 27.0476 30.0077 26.8257 30.5033C26.7573 30.6568 26.467 30.7955 26.2784 30.7973C23.2235 30.8158 20.1687 30.8158 17.1139 30.7955C16.9142 30.7936 16.7145 30.5791 16.5166 30.4608C16.1911 30.2666 15.8694 29.9042 15.5402 29.8986C12.8497 29.8524 10.1573 29.8709 7.4649 29.8764C6.84543 29.8783 6.50149 30.2148 6.48115 30.8214C6.45711 31.5888 6.45341 32.3599 6.48854 33.1273C6.51813 33.7578 6.84543 34.0352 7.4871 34.0445C8.38394 34.0556 9.86698 34.0648 10.762 34.0426C10.8452 34.0408 10.9007 34.0445 10.9321 34.0556H10.762V38.1718C8.17314 38.1718 5.5843 38.1718 2.99546 38.1718C1.69364 38.1718 1.40332 38.451 1.40332 39.7159C1.40517 44.3314 1.40517 48.9488 1.40887 53.5662C1.40887 54.7385 1.72877 55.0603 2.91779 55.0603C9.24381 55.064 15.5698 55.064 21.8958 55.0584C23.1699 55.0566 23.4547 54.757 23.4565 53.4719C23.4584 48.9026 23.4565 44.3333 23.4584 39.7639C23.4584 38.451 23.1792 38.1718 21.8367 38.17C18.8577 38.1681 15.8786 38.17 12.8996 38.17V34.0537C13.6042 34.0352 14.8782 34.087 15.5772 34.0241C15.8768 33.9964 16.2855 33.8263 16.4186 33.5914C16.6405 33.2012 16.8994 33.1162 17.2914 33.118C20.239 33.1254 23.1884 33.1254 26.136 33.118C26.5058 33.1162 26.7444 33.1901 26.9459 33.5692C27.0735 33.8078 27.4822 34.0241 27.7688 34.0278C30.5037 34.0611 33.2387 34.0611 35.9717 34.026C36.2547 34.0223 36.6522 33.7948 36.7891 33.5544C37.0017 33.1827 37.2532 33.118 37.6175 33.1199C40.3506 33.1291 43.0855 33.1217 45.8186 33.1513C46.0294 33.1495 46.2365 33.3936 46.4491 33.5156ZM57.6607 40.3298C59.1585 40.3335 59.6726 40.8346 59.6744 42.3047C59.68 45.1913 59.6818 48.076 59.6763 50.9625C59.6744 52.3864 59.1345 52.9319 57.7143 52.9338C52.9286 52.9393 48.1411 52.9393 43.3555 52.9338C42.0999 52.9319 41.5618 52.3975 41.5562 51.1253C41.5451 48.0945 41.5451 45.0655 41.5581 42.0347C41.5636 40.8698 42.0703 40.3501 43.2297 40.3409C45.6836 40.3224 48.1356 40.3353 50.5894 40.3353V40.3279C52.9471 40.3279 55.3048 40.3242 57.6607 40.3298ZM19.4938 40.3298C20.9916 40.3335 21.5057 40.8346 21.5075 42.3047C21.5131 45.1913 21.5149 48.076 21.5094 50.9625C21.5075 52.3864 20.9676 52.9319 19.5474 52.9338C14.7617 52.9393 9.97423 52.9393 5.18857 52.9338C3.93299 52.9319 3.39488 52.3975 3.38933 51.1253C3.37824 48.0945 3.37824 45.0655 3.39118 42.0347C3.39673 40.8698 3.9034 40.3501 5.06283 40.3409C7.51668 40.3224 9.96868 40.3353 12.4225 40.3353V40.3279C14.7784 40.3279 17.1361 40.3242 19.4938 40.3298Z" fill="#001E42"/>
</svg>
