<svg width="63" height="57" viewBox="0 0 63 57" fill="none" xmlns="http://www.w3.org/2000/svg">
<path d="M25.8623 51.8557L24.4257 51.214C21.979 50.1225 19.9739 48.2207 18.7429 45.828L18.2429 44.8541C18.1643 44.7007 18.0906 44.5423 18.017 44.3838C16.6033 44.3838 15.1871 44.3812 13.7734 44.3812C10.9865 44.3812 8.20224 44.3914 5.41542 44.3787C3.98139 44.371 3.81642 44.1742 3.8088 42.6123C3.80119 40.9559 3.91794 40.7897 5.33166 40.7846C9.24794 40.7769 13.1642 40.7769 17.0805 40.7795C16.9409 39.3838 17.0272 37.9037 17.3698 36.4364C16.1693 36.4364 14.9713 36.4339 13.7708 36.4339C10.9434 36.4339 8.11341 36.3904 5.28597 36.4518C3.83165 36.4824 3.81642 35.6287 3.78596 34.5499C3.75297 33.3996 4.05246 32.8219 5.32912 32.8321C9.81647 32.8628 14.3038 32.85 18.7912 32.8475C19.4891 31.6486 20.4028 30.5162 21.5653 29.5141C22.012 29.1307 22.4815 28.7779 22.9714 28.461C22.8191 28.4916 22.6465 28.5095 22.4409 28.5044C19.5704 28.4482 16.6972 28.4865 13.8267 28.4865C10.9561 28.4865 8.08295 28.4456 5.21237 28.507C3.92302 28.5351 3.77835 27.8449 3.79611 26.8147C3.81388 25.8101 3.78596 24.964 5.20222 24.9743C10.9459 25.0177 16.6871 25.0152 22.4308 24.9743C23.8166 24.964 23.8623 25.7641 23.8623 26.7969C23.8623 27.326 23.8267 27.7708 23.611 28.075C24.8572 27.3669 26.2151 26.871 27.6313 26.6077C27.6288 22.4998 27.6237 18.3894 27.6186 14.2815C26.8471 13.4814 26.1009 10.9328 25.7735 9.69563C25.6567 9.25595 25.7024 8.78816 25.908 8.38172C26.2963 7.6174 26.9689 6.36229 27.4537 5.86383C27.507 5.81014 27.5577 5.75646 27.611 5.70278C27.611 5.69767 27.611 5.69256 27.611 5.68744C27.611 5.13019 27.4105 4.50646 27.1161 4.02845C26.4968 3.01873 25.6922 2.12149 25.0831 1.10667C24.6059 0.314233 24.0196 -0.00274024 23.1186 0.0151534C21.1313 0.053497 19.1389 -0.0283026 17.1541 0.0483845L10.6236 0.0458283C8.76316 -0.0180777 6.89766 0.102066 5.03978 0.00748471C3.74281 -0.0589775 2.85702 0.306564 2.28087 1.531C1.923 2.2902 1.31894 2.92415 0.902689 3.66035C0.544819 4.29174 0.0422763 4.98448 0.0397382 5.6491C-0.0084855 22.0525 -0.00340932 38.4533 0.00674305 54.8567C0.00674305 56.4441 0.572737 56.9911 2.17935 56.9937C9.92307 57.0039 17.6642 57.0014 25.408 56.9886C27.0933 56.986 27.6288 56.4646 27.6288 54.7723C27.6288 53.9671 27.6288 53.1644 27.6288 52.3592C27.0222 52.2365 26.4334 52.0704 25.8623 51.8557ZM3.81388 9.58826C3.82403 8.03407 4.25551 7.56372 5.75044 7.55861C11.121 7.53816 16.4916 7.53816 21.8623 7.5535C23.3572 7.55861 23.8267 8.04685 23.8369 9.56526C23.8597 12.2467 23.8572 14.9282 23.8369 17.6123C23.8242 19.1972 23.3673 19.6317 21.7683 19.6394C19.1033 19.6496 16.4409 19.6419 13.7759 19.6419C13.7759 19.6394 13.7759 19.6394 13.7759 19.6368C11.1109 19.6368 8.44844 19.6471 5.78344 19.6343C4.29104 19.6266 3.82403 19.1588 3.81388 17.6404C3.79611 14.9538 3.79865 12.2723 3.81388 9.58826ZM13.6921 54.5806C11.6261 54.5193 10.0398 52.7938 10.1363 50.7105C10.2276 48.7089 11.9155 47.1803 13.9586 47.2519C15.9942 47.3209 17.5576 48.9594 17.517 50.9789C17.4739 53.0417 15.7734 54.6445 13.6921 54.5806Z" fill="#001E42"/>
<path d="M21.8474 42.9729C20.4413 40.2377 20.8068 35.5547 24.2078 32.6201C27.5225 29.7622 32.553 29.7571 35.8475 32.6303C39.2308 35.5802 39.9846 40.5419 37.6115 44.3047C35.0835 48.3129 30.4058 49.2024 27.289 48.0266C27.4033 47.8936 27.4972 47.7684 27.6038 47.6585C28.9718 46.2781 30.3424 44.9003 31.7079 43.5199C32.515 42.7045 32.515 41.9862 31.7053 41.1656C30.7307 40.1789 29.751 39.1922 28.7662 38.2157C28.0555 37.5102 27.3043 37.5128 26.5885 38.2259C25.1342 39.6779 23.69 41.1375 22.2408 42.5946C22.1266 42.7121 22.0047 42.8221 21.8474 42.9729Z" fill="#001E42"/>
<path d="M48.6598 10.8231C45.3324 14.1615 42.0861 17.4233 38.7562 20.7643C39.8374 21.1375 40.8222 21.4749 41.807 21.8226C42.812 22.1753 43.4999 22.8578 43.8222 23.8854C44.0481 24.6089 43.977 25.299 43.4263 25.8537C42.8704 26.4136 42.1496 26.4902 41.4643 26.227C39.3095 25.4038 37.1572 24.568 35.0429 23.6477C34.0226 23.2029 33.4313 22.3619 33.4135 21.1503C33.378 18.8088 33.2942 16.4698 33.1978 14.1283C33.1698 13.4228 33.3805 12.8681 33.8704 12.3773C36.147 10.0971 38.4085 7.80159 40.6851 5.52143C41.4973 4.70855 42.5912 4.80057 43.576 5.76938C44.7359 6.91202 45.873 8.08278 47.0253 9.23309C47.5329 9.74689 48.0583 10.2402 48.6598 10.8231Z" fill="#001E42"/>
<path d="M45.3857 22.5382C44.7893 21.3419 43.769 20.4523 42.2715 19.8899C43.17 19.0183 43.9999 18.2335 44.807 17.4232C47.6802 14.5372 50.5355 11.6359 53.4137 8.75753C54.9696 7.20078 56.8274 6.70487 58.896 7.49474C60.9391 8.2744 62.0178 9.85927 62.1701 12.0397C62.2513 13.2028 61.962 14.325 61.2133 15.2223C60.3884 16.2141 59.4544 17.1113 58.4544 18.1722C57.9188 17.5791 57.4696 17.0091 56.9493 16.5157C55.6878 15.3194 53.8883 15.0126 52.5 15.7616C51.6548 16.2192 51.0228 16.9145 50.5609 17.7683C50.4568 17.96 50.2817 18.1517 50.0939 18.2565C49.1751 18.7601 48.467 19.4605 47.9746 20.3884C47.8984 20.5316 47.8172 20.6875 47.6954 20.7821C46.9467 21.3649 46.1878 21.9324 45.3857 22.5382Z" fill="#001E42"/>
<path d="M47.1089 25.2071C46.7003 23.589 48.048 22.2086 49.7257 22.6227C49.5302 21.8379 49.6216 21.1708 50.2054 20.5649C50.7968 19.954 51.4617 19.8568 52.2663 20.0332C52.2663 19.8926 52.2841 19.8032 52.2638 19.7239C51.9922 18.7117 52.5861 18.0394 53.3247 17.5409C53.9237 17.137 54.8349 17.2214 55.4821 17.8323C56.7232 18.998 57.9263 20.2045 59.0912 21.4468C59.7055 22.1012 59.8197 23.0879 59.4136 23.6682C58.7943 24.5552 58.2207 24.9847 57.1902 24.7393C57.1242 24.7239 57.0531 24.7367 56.9821 24.7367C57.0506 26.7306 56.5075 27.2827 54.4085 27.3773C54.4744 29.3252 53.6115 30.1892 51.8171 29.9284C51.8171 30.0358 51.7993 30.1406 51.8196 30.2352C52.048 31.2372 51.5226 31.8942 50.7714 32.3747C50.0226 32.8553 49.2104 32.6789 48.614 32.1268C47.3399 30.9458 46.1114 29.7086 44.9363 28.4279C44.383 27.8246 44.1977 26.999 44.6749 26.2551C45.1825 25.4601 45.8348 24.9054 46.8957 25.2045C46.949 25.2198 47.0074 25.2071 47.1089 25.2071Z" fill="#001E42"/>
<path d="M45.1115 31.4644C43.4972 33.085 41.9084 34.6801 40.284 36.3084C39.1063 32.8115 36.7611 30.4189 33.1875 29.1535C33.5708 28.7573 33.9083 28.4046 34.251 28.0569C34.7434 27.5559 35.2535 27.0702 35.7307 26.5538C35.9794 26.2829 36.1977 26.2292 36.5454 26.3749C37.8221 26.9066 39.0987 27.4409 40.4033 27.901C41.0175 28.1183 41.6901 28.1617 42.3322 28.2998C42.4871 28.333 42.718 28.4046 42.7612 28.517C43.1597 29.5881 43.9972 30.3013 44.7587 31.0809C44.883 31.2087 45.0049 31.3468 45.1115 31.4644Z" fill="#001E42"/>
<path d="M29.7661 9.81587C29.9565 9.45033 30.0732 9.01577 30.3499 8.73458C32.5859 6.44164 34.8525 4.17937 37.1037 1.90432C37.4718 1.53366 37.9159 1.41096 38.4185 1.45697C39.5327 1.56178 40.5581 2.58683 40.5581 3.71669C40.5581 4.12057 40.3931 4.63182 40.1215 4.91301C37.8829 7.22896 35.6012 9.50145 33.3321 11.7867C32.9337 12.1881 32.4514 12.3031 31.9083 12.2008C30.7737 11.9836 29.8905 10.9713 29.7661 9.81587Z" fill="#001E42"/>
</svg>
