<svg width="64" height="64" viewBox="0 0 64 64" fill="none" xmlns="http://www.w3.org/2000/svg">
<path d="M55.3681 25.5397C56.544 25.5397 57.6624 25.5382 58.7809 25.5397C59.7672 25.5411 60.1161 25.8845 60.1233 26.8701C60.129 27.6129 60.1391 28.3557 60.119 29.0971C60.1003 29.7968 59.7572 30.1991 59.0637 30.2034C55.9769 30.2264 52.8886 30.2336 49.8018 30.1862C49.4802 30.1819 49.1672 29.781 48.8456 29.5712C48.6345 29.4333 48.4163 29.1948 48.1995 29.1934C45.0897 29.1661 41.9799 29.1646 38.8701 29.1833C38.6332 29.1847 38.28 29.337 38.1838 29.5238C37.8952 30.0856 37.4487 30.2278 36.8844 30.225C35.9038 30.2192 34.9203 30.2537 33.9412 30.2149C33.1429 30.1833 33.3051 30.725 33.2807 31.1818C33.2534 31.6646 33.3066 32.0123 33.9541 31.9879C35.0768 31.9448 36.2039 31.9922 37.3281 31.9692C37.8378 31.9591 38.1709 32.1373 38.4393 32.5827C38.7839 33.1531 39.239 33.6574 39.5894 34.2249C39.7545 34.4936 39.8679 34.8442 39.8693 35.1574C39.8851 44.3527 39.8851 53.548 39.8808 62.7433C39.8808 63.6945 39.5779 63.9876 38.6245 63.989C34.2441 63.9962 29.8651 63.9962 25.4847 63.9919C24.5759 63.9905 24.2557 63.6844 24.2557 62.7908C24.2499 53.571 24.2471 44.3527 24.2743 35.133C24.2758 34.758 24.5601 34.3686 24.7625 34.0152C24.998 33.6014 25.3411 33.245 25.5421 32.8183C25.868 32.1301 26.3691 31.9247 27.1027 31.962C28.1537 32.0152 29.209 31.9476 30.2614 31.9836C31.0137 32.0094 30.8802 31.5037 30.8945 31.0655C30.9089 30.6172 30.9376 30.1847 30.2628 30.2178C29.5464 30.2523 28.8271 30.225 28.1092 30.2221C27.5694 30.2206 27.1458 30.0669 26.8974 29.5109C26.8213 29.3399 26.4954 29.1833 26.2829 29.1819C22.8601 29.1617 19.4373 29.1603 16.016 29.1847C15.792 29.1862 15.5695 29.4276 15.3469 29.5597C14.9823 29.7781 14.6219 30.1833 14.2543 30.189C11.2393 30.2393 8.22424 30.2192 5.20775 30.2135C4.51286 30.212 4.12808 29.8342 4.10654 29.1531C4.07926 28.2925 4.07496 27.4276 4.11516 26.5684C4.14818 25.8629 4.51429 25.5497 5.2336 25.5411C6.23861 25.5282 7.24507 25.5181 8.24865 25.544C8.74541 25.5569 8.96077 25.373 8.92344 24.8802C8.91196 24.7379 8.91052 24.5914 8.92631 24.4491C8.99379 23.8644 8.76264 23.6503 8.15676 23.6604C6.14673 23.6905 4.13669 23.6719 2.12523 23.6704C1.86249 23.6704 1.59831 23.6704 1.33557 23.6704C0.159701 23.6675 0.00464175 23.5167 0.00320601 22.3558C0.00177028 21.5181 -0.00397267 20.6791 0.00464175 19.8414C0.0132562 19.0081 0.237231 18.7754 1.0757 18.7725C3.56527 18.7639 6.0534 18.7682 8.54297 18.7682C13.5207 18.7682 18.4998 18.7667 23.4775 18.7739C24.5715 18.7754 24.7079 18.9276 24.7094 20.034C24.7108 20.896 24.7166 21.7581 24.7036 22.6201C24.6907 23.4678 24.4868 23.6675 23.6225 23.669C19.8408 23.6733 16.0591 23.6661 12.2788 23.679C11.9658 23.6805 11.413 23.7408 11.3857 23.8658C11.2809 24.34 11.3197 24.8543 11.3742 25.3471C11.3829 25.429 11.7303 25.5239 11.9227 25.5282C12.7124 25.5497 13.5063 25.4908 14.2888 25.5612C14.6248 25.5914 15.0813 25.7839 15.2306 26.0468C15.479 26.4836 15.7676 26.5799 16.2098 26.5784C19.512 26.5698 22.8156 26.5698 26.1178 26.5799C26.5328 26.5813 26.7998 26.4994 27.0252 26.0741C27.1674 25.8069 27.6268 25.5641 27.947 25.5598C31.0094 25.5224 34.0733 25.5224 37.1371 25.5626C37.4544 25.567 37.8995 25.8213 38.0531 26.0914C38.2915 26.508 38.5729 26.5799 38.9806 26.5784C42.043 26.5669 45.1069 26.5756 48.1693 26.544C48.4062 26.5411 48.6374 26.2695 48.8757 26.1316C49.2246 25.9305 49.5634 25.6086 49.9338 25.567C50.7135 25.4793 51.5117 25.5195 52.2999 25.5454C52.7752 25.5612 52.9575 25.3672 52.9259 24.9132C52.9159 24.771 52.9101 24.6244 52.9274 24.4822C53.0063 23.8629 52.7637 23.6546 52.1233 23.6589C48.2942 23.6862 44.4651 23.6733 40.636 23.6719C39.43 23.6719 39.3065 23.5497 39.3008 22.3716C39.2979 21.5814 39.2965 20.7911 39.3022 20.0009C39.3094 18.9248 39.4659 18.7725 40.5685 18.771C47.2935 18.7696 54.0185 18.7696 60.7449 18.7696C61.5102 18.7696 62.2769 18.7753 63.0421 18.771C63.6925 18.7682 64.0098 19.0713 63.9998 19.7365C63.9854 20.7179 64.0041 21.7006 63.994 22.6819C63.9868 23.4219 63.7456 23.6647 62.9948 23.6675C60.7694 23.6762 58.5425 23.6704 56.3171 23.6719C55.3021 23.6719 55.2992 23.6733 55.3121 24.6905C55.3136 24.9506 55.3451 25.2078 55.3681 25.5397ZM32.0446 42.9964C32.0446 42.9978 32.0446 42.9978 32.0446 42.9993C33.5521 42.9993 35.0582 43.0036 36.5657 42.9978C37.4702 42.995 37.7301 42.7493 37.7358 41.8585C37.7473 40.3513 37.7473 38.8427 37.7373 37.3355C37.7315 36.4821 37.4645 36.2077 36.6203 36.2048C33.5822 36.1962 30.5442 36.1976 27.5062 36.2077C26.6591 36.2105 26.415 36.4749 26.4107 37.3485C26.4021 38.8556 26.4007 40.3642 26.4107 41.8714C26.4165 42.7248 26.6806 42.9878 27.5249 42.9921C29.0295 43.0007 30.537 42.9964 32.0446 42.9964ZM32.0403 52.4374C33.6397 52.4374 35.2405 52.4431 36.8399 52.4345C37.6569 52.4302 37.7401 52.3253 37.7401 51.4403C37.7401 50.5394 37.6569 50.4245 36.8643 50.4216C33.6641 50.4159 30.4652 50.4345 27.2664 50.4116C26.5442 50.4072 26.3748 50.7305 26.3935 51.3771C26.4107 51.9834 26.4193 52.4633 27.242 52.446C28.84 52.413 30.4408 52.4374 32.0403 52.4374ZM32.0417 56.9043C33.6411 56.9043 35.2405 56.9101 36.8399 56.9014C37.6497 56.8971 37.7373 56.7865 37.7387 55.9014C37.7401 54.9905 37.6626 54.8857 36.8629 54.8842C33.6641 54.877 30.4638 54.877 27.265 54.8842C26.4653 54.8857 26.3992 54.979 26.4035 55.9115C26.4079 56.7894 26.4997 56.9014 27.3124 56.9043C28.8902 56.9086 30.4652 56.9043 32.0417 56.9043ZM32.0733 47.9719C33.6971 47.9719 35.3223 47.9504 36.9462 47.982C37.677 47.9963 37.7487 47.5941 37.7487 47.0237C37.7487 46.4432 37.7229 45.9949 36.939 45.9992C33.6899 46.0222 30.4423 46.0222 27.1932 45.9992C26.3935 45.9935 26.4079 46.4676 26.3978 47.0337C26.3878 47.6127 26.471 47.9992 27.1989 47.9849C28.8228 47.9489 30.448 47.9734 32.0733 47.9719ZM44.88 19.9664C43.8765 19.9664 42.8715 19.9679 41.8679 19.9664C41.3424 19.965 41.0624 20.2078 41.071 20.7495C41.0753 20.988 41.0667 21.2279 41.0696 21.4664C41.0811 22.3227 41.2046 22.4492 42.0861 22.452C43.8076 22.4578 45.529 22.4549 47.2505 22.4535C48.5627 22.4535 48.6072 22.4061 48.5957 21.0684C48.5943 20.9722 48.5929 20.8773 48.5929 20.7811C48.5972 20.2136 48.3129 19.9564 47.7487 19.9621C46.7925 19.9736 45.8363 19.9664 44.88 19.9664ZM19.2005 22.4549C20.1078 22.4549 21.0152 22.4592 21.9226 22.4535C22.8357 22.4477 22.9319 22.3443 22.9377 21.4046C22.9391 21.261 22.9248 21.1173 22.9391 20.975C23.008 20.2768 22.7123 19.9679 21.9973 19.9751C20.2787 19.9909 18.5587 19.9679 16.8401 19.965C15.4589 19.9621 15.4029 20.0225 15.4245 21.4334C15.4259 21.5052 15.4273 21.577 15.4273 21.6489C15.4202 22.215 15.6872 22.4707 16.2629 22.4592C17.2421 22.4391 18.2213 22.4535 19.2005 22.4549ZM32.1465 58.5192C30.9922 58.479 30.0374 59.3382 29.9843 60.4632C29.9297 61.6342 30.8271 62.604 31.9957 62.6385C33.1745 62.6729 34.1364 61.7735 34.1594 60.6155C34.1809 59.479 33.2965 58.558 32.1465 58.5192ZM10.0404 22.2437C10.5788 22.2293 11.0211 21.7696 11.0239 21.2236C11.0254 20.646 10.5458 20.1848 9.96722 20.2064C9.42595 20.2265 8.96508 20.6977 8.96939 21.225C8.97369 21.7782 9.47907 22.2595 10.0404 22.2437ZM55.0336 21.2035C55.0293 20.6417 54.5469 20.2049 53.9482 20.2193C53.4083 20.2337 52.9747 20.7006 52.992 21.2495C53.0092 21.7969 53.4571 22.2394 53.997 22.2423C54.5641 22.2466 55.0379 21.7724 55.0336 21.2035ZM61.1527 22.2451C61.7112 22.248 62.1965 21.7538 62.1836 21.1963C62.1706 20.6604 61.7141 20.2136 61.1699 20.2064C60.6301 20.1992 60.1663 20.6403 60.1448 21.1805C60.1218 21.7509 60.587 22.2423 61.1527 22.2451ZM3.85529 21.2308C3.86103 20.6446 3.40447 20.192 2.82299 20.2049C2.28603 20.2179 1.82946 20.6819 1.8309 21.215C1.83234 21.7523 2.28029 22.225 2.80864 22.2451C3.38293 22.2681 3.84955 21.8141 3.85529 21.2308ZM7.43602 21.2193C7.43889 20.6532 7.00673 20.2136 6.44249 20.2064C5.87537 20.1992 5.43747 20.6216 5.42311 21.1891C5.40876 21.794 5.8524 22.2509 6.44536 22.2408C7.00099 22.2308 7.43315 21.7854 7.43602 21.2193ZM58.5928 21.261C58.61 20.692 58.2037 20.2437 57.638 20.2078C57.058 20.1705 56.5799 20.6302 56.5784 21.2265C56.577 21.7854 57.0163 22.2365 57.5691 22.2437C58.1348 22.2495 58.5741 21.827 58.5928 21.261Z" fill="#001E42"/>
<path d="M12.3966 0.00112684C15.5079 0.00112684 18.6206 -0.000309923 21.7318 0.00112684C23.0685 0.00256361 23.347 0.27986 23.347 1.58876C23.3456 6.139 23.347 10.6892 23.3456 15.2409C23.3456 16.5211 23.0613 16.8214 21.7935 16.8214C15.4978 16.8271 9.20213 16.8271 2.90642 16.8242C1.72481 16.8242 1.40607 16.5038 1.40607 15.3358C1.40177 10.7367 1.40177 6.139 1.4032 1.53991C1.4032 0.278423 1.69179 0.00256361 2.98826 0.00112684C6.12391 -0.000309923 9.25956 0.00112684 12.3966 0.00112684ZM12.3636 2.15197C12.3636 2.15484 12.3636 2.15628 12.3636 2.15915C9.92143 2.15915 7.48068 2.14622 5.03992 2.1649C3.88559 2.17352 3.38165 2.69219 3.37591 3.85166C3.36298 6.86888 3.36298 9.88609 3.37447 12.9047C3.37878 14.172 3.91574 14.705 5.16483 14.7064C9.92861 14.7122 14.6909 14.7122 19.4547 14.7064C20.8675 14.705 21.4045 14.1605 21.4073 12.7424C21.4131 9.86885 21.4131 6.99531 21.4059 4.12034C21.403 2.65484 20.8919 2.15628 19.4016 2.15341C17.0556 2.14766 14.7096 2.15197 12.3636 2.15197Z" fill="#001E42"/>
<path d="M51.75 0.000938297C54.8828 0.000938297 58.017 -0.00193524 61.1498 0.00237507C62.2782 0.00381183 62.62 0.327085 62.6228 1.4492C62.6329 6.08996 62.6329 10.7322 62.6257 15.3729C62.6243 16.4878 62.2739 16.8255 61.1526 16.8269C54.8383 16.8298 48.5239 16.8298 42.2095 16.8255C40.9561 16.8241 40.6618 16.5137 40.6604 15.235C40.6575 10.6876 40.6575 6.14168 40.6604 1.59431C40.6618 0.288292 40.9532 0.0052486 42.277 0.00381183C45.4356 -0.00049847 48.5928 0.000938297 51.75 0.000938297ZM51.6524 14.7077C53.9984 14.7077 56.3443 14.7106 58.6903 14.7063C60.1333 14.7034 60.6645 14.2034 60.6702 12.7781C60.6831 9.85573 60.6831 6.93478 60.6702 4.01239C60.6645 2.65896 60.1433 2.15322 58.7851 2.15178C54.0213 2.14747 49.2576 2.14747 44.4938 2.15322C43.1499 2.15465 42.6273 2.67907 42.6244 4.0282C42.6173 6.95058 42.6173 9.87153 42.6244 12.7939C42.6273 14.1761 43.1557 14.7005 44.544 14.7048C46.913 14.7134 49.2834 14.7077 51.6524 14.7077Z" fill="#001E42"/>
</svg>
